<?xml version="1.0" encoding="utf-8"?>
<!-- Generator: Adobe Illustrator 19.0.0, SVG Export Plug-In . SVG Version: 6.00 Build 0)  -->
<svg version="1.1" id="Layer_1" xmlns="http://www.w3.org/2000/svg" xmlns:xlink="http://www.w3.org/1999/xlink" x="0px" y="0px"
	 viewBox="0 0 745.333313 218" enable-background="new 0 0 745.333313 218" xml:space="preserve">
<g display="none">
	<path display="inline" fill="#569FE2" d="M192.75,68.9166641c-24.1624756,0-43.75,23.5610352-43.75,52.625
		s19.5875244,52.6250076,43.75,52.6250076s43.75-23.5610352,43.75-52.6250076S216.9124756,68.9166641,192.75,68.9166641z
		 M192.6875,170.6666718c-22.1949463,0-40.1875-21.9940186-40.1875-49.1250076s17.9925537-49.125,40.1875-49.125
		s40.1875,21.9940186,40.1875,49.125S214.8824463,170.6666718,192.6875,170.6666718z"/>
	<g display="inline">
		<g>
			<g>
				<g>
					<path fill="#569FE2" d="M229.75,121.4791794c0-6.3302155-1.0288086-12.3612823-2.8876953-17.8514557l-9.7789917,5.8510132
						v24.3273392l9.6844482,5.7943726C228.6851196,134.0379486,229.75,127.9137344,229.75,121.4791794z"/>
				</g>
				<g>
					<path fill="#569FE2" d="M194.1054077,94.0646744l21.3504639,12.40625l10.1751709-6.0880737
						c-5.9503784-14.3231812-17.7619629-24.2645264-31.4968872-24.9207153L194.1054077,94.0646744z"/>
				</g>
				<g>
					<polygon fill="#569FE2" points="213.8329468,109.2779312 192.416687,96.8333511 171.0003662,109.3500748 
						171.0003662,133.0821381 192.416687,146.2499847 213.8329468,133.0817719 					"/>
				</g>
				<g>
					<path fill="#569FE2" d="M169.2624512,106.6158218l21.4262695-12.522583l0.0286865-18.6107178
						c-13.649231,0.8886719-25.3344116,10.9597168-31.1512451,25.3317261L169.2624512,106.6158218z"/>
				</g>
				<g>
					<path fill="#569FE2" d="M190.7167358,148.9547577l-20.8994141-12.8499756l-10.2200317,6.1149292
						c5.8230591,14.3212891,17.4783325,24.3537598,31.0909424,25.2532959L190.7167358,148.9547577z"/>
				</g>
				<g>
					<path fill="#569FE2" d="M214.6480713,136.3305511l-20.5145874,12.6138306l-0.0286865,18.5527344
						c13.6638184-0.6395874,25.4290161-10.4667358,31.418335-24.65979L214.6480713,136.3305511z"/>
				</g>
				<g>
					<path fill="#569FE2" d="M167.75,133.3601532V109.692421l-9.3806763-5.6127319
						c-1.7644043,5.3696289-2.7443237,11.2410278-2.7443237,17.3994904c0,6.1885223,0.9886475,12.0877609,2.7694702,17.4786301
						L167.75,133.3601532z"/>
				</g>
			</g>
		</g>
		<path fill="#569FE2" d="M148,142.7291718c0,0,1.9538574,5.9467316,8.2592163,15.3065186
			C159,162.1041718,155.125,169.9791718,151.125,169.9791718C145.6875,169.9791718,137.9375,156.3541718,148,142.7291718z"/>
		<path fill="#569FE2" d="M236.2970123,142.7291718c0,0-1.9538574,5.9467316-8.2592163,15.3065186
			c-2.7407837,4.0684814,1.1342163,11.9434814,5.1342163,11.9434814
			C238.6095123,169.9791718,246.3595123,156.3541718,236.2970123,142.7291718z"/>
		<path fill="#569FE2" d="M192.75,65.4166641c5.1842651,0,10.1553345,1.0914307,14.7700806,3.0823364
			c0.1312256-1.1152954,0.2157593-2.251709,0.211731-3.4180298c-0.0404663-11.6496544-7.0828247-21.0692101-15.7294922-21.0391197
			c-8.6466675,0.0300293-15.6233521,9.498291-15.5828857,21.1479454c0.0046387,1.3320313,0.1115112,2.6300049,0.2911377,3.8928833
			C181.6786499,66.7256851,187.0856323,65.4166641,192.75,65.4166641z"/>
		<path fill="#569FE2" d="M162.3333282,79.5c0.7289734-0.454361-0.7083282-2.6666641-2.1666565-2.6666641
			c-0.3333435,0-4.3333435-0.375-13.9166718,0.9166641c-8.7429657,1.1783981-30.3649979,15.6791153-21.375,34.0416641
			c1.9583359,4,11,1.1666718,23.125-9.5C148,102.2916641,150.1666718,87.0833359,162.3333282,79.5z"/>
		<path fill="#569FE2" d="M222.0920563,79.5c-0.7289734-0.454361,0.7083435-2.6666641,2.1666718-2.6666641
			c0.3333282,0,4.3333282-0.375,13.9166718,0.9166641c8.7429657,1.1783981,30.3650055,15.6791153,21.3749847,34.0416641
			c-1.958313,4-10.9999847,1.1666718-23.1249847-9.5C236.4253998,102.2916641,234.258728,87.0833359,222.0920563,79.5z"/>
	</g>
	<g display="inline">
		
			<text transform="matrix(1.06327 0 0 1 263.6668396 134.5253296)" fill="#569FE2" font-family="'Calibri-Bold'" font-size="143px" letter-spacing="-2.8214848">EXMAX</text>
	</g>
	<g display="inline">
		
			<text transform="matrix(1 0 0 1 272.6665039 174.1666718)" fill="#3D3584" font-family="'Calibri'" font-size="40px" letter-spacing="-1">TRAVEL TECHNOLOGY STORE</text>
	</g>
	<g display="inline">
		<g>
			
				<line fill="none" stroke="#3D3584" stroke-width="1.5" stroke-miterlimit="10" x1="47.5" y1="68.9166641" x2="146.75" y2="69.0826797"/>
			
				<line fill="none" stroke="#3D3584" stroke-width="1.5" stroke-miterlimit="10" x1="47.3333321" y1="77.5265732" x2="127.2491913" y2="77.6925888"/>
			
				<line fill="none" stroke="#3D3584" stroke-width="1.5" stroke-miterlimit="10" x1="38.8333321" y1="86.8708572" x2="119.7491684" y2="87.0368729"/>
			
				<line fill="none" stroke="#3D3584" stroke-width="1.5" stroke-miterlimit="10" x1="51" y1="96.7503433" x2="116.4375" y2="96.9163589"/>
			
				<line fill="none" stroke="#3D3584" stroke-width="1.5" stroke-miterlimit="10" x1="29.833334" y1="108.2086563" x2="116.4375" y2="108.3746719"/>
			
				<line fill="none" stroke="#3D3584" stroke-width="1.5" stroke-miterlimit="10" x1="47.3333321" y1="119.8696442" x2="140.4270782" y2="120.0356598"/>
			
				<line fill="none" stroke="#3D3584" stroke-width="1.5" stroke-miterlimit="10" x1="44.8333321" y1="131.1912689" x2="142.629364" y2="131.3572845"/>
			
				<line fill="none" stroke="#3D3584" stroke-width="1.5" stroke-miterlimit="10" x1="65" y1="141.7094116" x2="139.6290436" y2="141.8754272"/>
			
				<line fill="none" stroke="#3D3584" stroke-width="1.5" stroke-miterlimit="10" x1="40.6666679" y1="152.7224731" x2="135.2953186" y2="152.8884888"/>
			
				<line fill="none" stroke="#3D3584" stroke-width="1.5" stroke-miterlimit="10" x1="83.71875" y1="161.8558502" x2="137" y2="162.0218658"/>
			
				<line fill="none" stroke="#3D3584" stroke-width="1.5" stroke-miterlimit="10" x1="107.5833359" y1="172.1808167" x2="139.6290436" y2="172.3468323"/>
			
				<line fill="none" stroke="#3D3584" stroke-width="1.5" stroke-miterlimit="10" x1="81" y1="60.5445595" x2="167.75" y2="60.7105751"/>
			
				<line fill="none" stroke="#3D3584" stroke-width="1.5" stroke-miterlimit="10" x1="75.125" y1="52.1630783" x2="170.1243896" y2="52.3290939"/>
			
				<line fill="none" stroke="#3D3584" stroke-width="1.5" stroke-miterlimit="10" x1="127.2491913" y1="44.9587708" x2="173.4989624" y2="45.1247864"/>
		</g>
	</g>
</g>
<g>
	<g>
		<g>
			<path fill="#569FE2" d="M192.75,68.9166641c-24.1624756,0-43.75,23.5610352-43.75,52.625s19.5875244,52.6250076,43.75,52.6250076
				s43.75-23.5610352,43.75-52.6250076S216.9124756,68.9166641,192.75,68.9166641z M192.6875,170.6666718
				c-22.1949463,0-40.1875-21.9940186-40.1875-49.1250076s17.9925537-49.125,40.1875-49.125s40.1875,21.9940186,40.1875,49.125
				S214.8824463,170.6666718,192.6875,170.6666718z"/>
		</g>
	</g>
	<g>
		<g>
			<g>
				<g>
					<path fill="#569FE2" d="M229.75,121.4791794c0-6.3302155-1.0288086-12.3612823-2.8876953-17.8514557l-9.7789917,5.8510132
						v24.3273392l9.6844482,5.7943726C228.6851196,134.0379486,229.75,127.9137344,229.75,121.4791794z"/>
				</g>
			</g>
			<g>
				<g>
					<path fill="#569FE2" d="M194.1054077,94.0646744l21.3504639,12.40625l10.1751709-6.0880737
						c-5.9503784-14.3231812-17.7619629-24.2645264-31.4968872-24.9207153L194.1054077,94.0646744z"/>
				</g>
			</g>
			<g>
				<g>
					<polygon fill="#569FE2" points="213.8329468,109.2779312 192.416687,96.8333511 171.0003662,109.3500748 
						171.0003662,133.0821381 192.416687,146.2499847 213.8329468,133.0817719 					"/>
				</g>
			</g>
			<g>
				<g>
					<path fill="#569FE2" d="M169.2624512,106.6158218l21.4262695-12.522583l0.0286865-18.6107178
						c-13.649231,0.8886719-25.3344116,10.9597168-31.1512451,25.3317261L169.2624512,106.6158218z"/>
				</g>
			</g>
			<g>
				<g>
					<path fill="#569FE2" d="M190.7167358,148.9547577l-20.8994141-12.8499756l-10.2200317,6.1149292
						c5.8230591,14.3212891,17.4783325,24.3537598,31.0909424,25.2532959L190.7167358,148.9547577z"/>
				</g>
			</g>
			<g>
				<g>
					<path fill="#569FE2" d="M214.6480713,136.3305511l-20.5145874,12.6138306l-0.0286865,18.5527344
						c13.6638184-0.6395874,25.4290161-10.4667358,31.418335-24.65979L214.6480713,136.3305511z"/>
				</g>
			</g>
			<g>
				<g>
					<path fill="#569FE2" d="M167.75,133.3601532V109.692421l-9.3806763-5.6127319
						c-1.7644043,5.3696289-2.7443237,11.2410278-2.7443237,17.3994904c0,6.1885223,0.9886475,12.0877609,2.7694702,17.4786301
						L167.75,133.3601532z"/>
				</g>
			</g>
		</g>
		<g>
			<path fill="#569FE2" d="M148,142.7291718c0,0,1.9538574,5.9467316,8.2592163,15.3065186
				C159,162.1041718,155.125,169.9791718,151.125,169.9791718C145.6875,169.9791718,137.9375,156.3541718,148,142.7291718z"/>
		</g>
		<g>
			<path fill="#569FE2" d="M236.2970123,142.7291718c0,0-1.9538574,5.9467316-8.2592163,15.3065186
				c-2.7407837,4.0684814,1.1342163,11.9434814,5.1342163,11.9434814
				C238.6095123,169.9791718,246.3595123,156.3541718,236.2970123,142.7291718z"/>
		</g>
		<g>
			<path fill="#569FE2" d="M192.75,65.4166641c5.1842651,0,10.1553345,1.0914307,14.7700806,3.0823364
				c0.1312256-1.1152954,0.2157593-2.251709,0.211731-3.4180298c-0.0404663-11.6496544-7.0828247-21.0692101-15.7294922-21.0391197
				c-8.6466675,0.0300293-15.6233521,9.498291-15.5828857,21.1479454c0.0046387,1.3320313,0.1115112,2.6300049,0.2911377,3.8928833
				C181.6786499,66.7256851,187.0856323,65.4166641,192.75,65.4166641z"/>
		</g>
		<g>
			<path fill="#569FE2" d="M162.3333282,79.5c0.7289734-0.454361-0.7083282-2.6666641-2.1666565-2.6666641
				c-0.3333435,0-4.3333435-0.375-13.9166718,0.9166641c-8.7429657,1.1783981-30.3649979,15.6791153-21.375,34.0416641
				c1.9583359,4,11,1.1666718,23.125-9.5C148,102.2916641,150.1666718,87.0833359,162.3333282,79.5z"/>
		</g>
		<g>
			<path fill="#569FE2" d="M222.0920563,79.5c-0.7289734-0.454361,0.7083435-2.6666641,2.1666718-2.6666641
				c0.3333282,0,4.3333282-0.375,13.9166718,0.9166641c8.7429657,1.1783981,30.3650055,15.6791153,21.3749847,34.0416641
				c-1.958313,4-10.9999847,1.1666718-23.1249847-9.5C236.4253998,102.2916641,234.258728,87.0833359,222.0920563,79.5z"/>
		</g>
	</g>
	<g>
		<path fill="#569FE2" d="M331.0786133,127.3336563c0,1.3505936-0.0625,2.4785233-0.1855469,3.3857498
			c-0.1240234,0.9082031-0.3095703,1.6416016-0.5566406,2.2001953c-0.2485352,0.5585938-0.5571289,0.9658203-0.9282227,1.2216797
			s-0.7792969,0.3837891-1.2250977,0.3837891h-48.2573242c-1.6333008,0-3.0068359-0.4541016-4.1201172-1.3613281
			c-1.1137695-0.9082031-1.6704102-2.3847656-1.6704102-4.4335938V49.9684258c0-2.0478516,0.5566406-3.5258789,1.6704102-4.434082
			c1.1132813-0.9072266,2.4868164-1.3613281,4.1201172-1.3613281h47.9604492c0.4453125,0,0.8413086,0.1166992,1.1879883,0.3491211
			c0.3457031,0.2333984,0.6425781,0.640625,0.8911133,1.222168c0.2470703,0.5825195,0.4326172,1.3261719,0.5566406,2.234375
			c0.1230469,0.9072266,0.1855469,2.0595703,0.1855469,3.4560547c0,1.3037109-0.0625,2.4091797-0.1855469,3.3164063
			c-0.1240234,0.9082031-0.3095703,1.6411133-0.5566406,2.199707c-0.2485352,0.5585938-0.5454102,0.9667969-0.8911133,1.222168
			c-0.3466797,0.2563477-0.7426758,0.3837891-1.1879883,0.3837891h-34.2998047V80.621254h29.0288086
			c0.4453125,0,0.8535156,0.1289063,1.2250977,0.3837891c0.3710938,0.2568359,0.6796875,0.652832,0.9277344,1.1875
			c0.2470703,0.5356445,0.4326172,1.2568359,0.5571289,2.1640625c0.1225586,0.9082031,0.1855469,2.0141602,0.1855469,3.3168945
			c0,1.3505859-0.0629883,2.4677734-0.1855469,3.3515625c-0.1245117,0.8847656-0.3100586,1.5952148-0.5571289,2.1293945
			c-0.2480469,0.5361328-0.5566406,0.9199219-0.9277344,1.1523438c-0.371582,0.2333984-0.7797852,0.3491211-1.2250977,0.3491211
			h-29.0288086v25.4853516h34.5966797c0.4458008,0,0.8540039,0.1289063,1.2250977,0.3837891
			c0.3710938,0.2568359,0.6796875,0.6640625,0.9282227,1.2226563c0.2470703,0.5585938,0.4326172,1.2910156,0.5566406,2.1992188
			C331.0161133,124.8541641,331.0786133,125.9840469,331.0786133,127.3336563z"/>
		<path fill="#569FE2" d="M412.9521484,127.6129532c0.8916016,1.6298904,1.4726563,2.9316483,1.7451172,3.9101639
			c0.2714844,0.9765625,0.1113281,1.7226563-0.4824219,2.234375c-0.59375,0.5126953-1.6708984,0.8378906-3.2294922,0.9765625
			c-1.5595703,0.140625-3.7255859,0.2099609-6.4960938,0.2099609c-2.3271484,0-4.1582031-0.046875-5.4941406-0.1396484
			c-1.3369141-0.09375-2.3886719-0.2441406-3.1552734-0.4541016c-0.7685547-0.2089844-1.3251953-0.4990234-1.6708984-0.8720703
			c-0.3466797-0.3720703-0.6435547-0.8378906-0.890625-1.3964844L375.2373047,99.473793l-17.9658203,32.6079178
			c-0.296875,0.5585938-0.6196289,1.0244141-0.965332,1.3964844c-0.3466797,0.3730469-0.9033203,0.6630859-1.6704102,0.8720703
			c-0.7680664,0.2099609-1.831543,0.3603516-3.1923828,0.4541016c-1.3618164,0.0927734-3.1552734,0.1396484-5.3823242,0.1396484
			c-2.5742188,0-4.565918-0.0693359-5.9765625-0.2099609c-1.4106445-0.1386719-2.3642578-0.4638672-2.8583984-0.9765625
			c-0.4951172-0.5117188-0.59375-1.2578125-0.296875-2.234375c0.296875-0.9785156,0.9150391-2.2802734,1.855957-3.9101639
			l23.0151367-39.4506836L340.418457,51.0856133c-0.890625-1.6757813-1.4975586-3.0131836-1.8188477-4.0151367
			c-0.3227539-1-0.1982422-1.7451172,0.3710938-2.234375c0.5683594-0.4882813,1.6206055-0.7905273,3.1552734-0.9072266
			c1.5336914-0.1157227,3.7124023-0.1748047,6.5332031-0.1748047c2.3261719,0,4.1694336,0.046875,5.53125,0.1396484
			c1.3608398,0.09375,2.4370117,0.2441406,3.2294922,0.4541016c0.7910156,0.2089844,1.3481445,0.5004883,1.6704102,0.8725586
			c0.3212891,0.3730469,0.6308594,0.8378906,0.9282227,1.3964844l16.8525391,29.8847618l16.4072266-29.8847618
			c0.296875-0.5585938,0.6054688-1.0234375,0.9277344-1.3964844c0.3212891-0.3720703,0.8408203-0.6635742,1.5595703-0.8725586
			c0.7167969-0.2099609,1.7070313-0.3603516,2.9697266-0.4541016c1.2617188-0.0927734,3.0068359-0.1396484,5.2333984-0.1396484
			c2.4746094,0,4.4296875,0.059082,5.8652344,0.1748047c1.4355469,0.1166992,2.4248047,0.4306641,2.9697266,0.9423828
			c0.5439453,0.5126953,0.6796875,1.2568359,0.4082031,2.234375c-0.2724609,0.9775391-0.8291016,2.3041992-1.6699219,3.9799805
			l-21.3818359,36.8671837L412.9521484,127.6129532z"/>
		<path fill="#569FE2" d="M536.4013672,132.0113983c0,0.4658203-0.1367188,0.8847656-0.4082031,1.2568359
			c-0.2724609,0.3730469-0.7675781,0.6757813-1.484375,0.9072266c-0.71875,0.234375-1.6708984,0.4199219-2.8583984,0.5585938
			c-1.1884766,0.140625-2.6982422,0.2099609-4.5292969,0.2099609c-1.78125,0-3.2666016-0.0693359-4.4541016-0.2099609
			c-1.1884766-0.1386719-2.1289063-0.3242188-2.8212891-0.5585938c-0.6933594-0.2314453-1.1875-0.5341797-1.4853516-0.9072266
			c-0.296875-0.3720703-0.4453125-0.7910156-0.4453125-1.2568359V58.4869804h-0.1484375l-27.8408203,73.4541016
			c-0.1982422,0.6064453-0.5195313,1.1064453-0.9648438,1.5019531s-1.0517578,0.7099609-1.8193359,0.9423828
			s-1.7441406,0.3837891-2.9316406,0.4541016c-1.1884766,0.0693359-2.6240234,0.1044922-4.3066406,0.1044922
			s-3.1181641-0.0585938-4.3056641-0.1748047c-1.1884766-0.1162109-2.1660156-0.3017578-2.9326172-0.5585938
			c-0.7685547-0.2548828-1.3740234-0.5693359-1.8193359-0.9423828c-0.4453125-0.3720703-0.7421875-0.8134766-0.890625-1.3271484
			l-26.8759766-73.4541016h-0.1484375v73.5244141c0,0.4658203-0.1367188,0.8847656-0.4082031,1.2568359
			c-0.2724609,0.3730469-0.7792969,0.6757813-1.5214844,0.9072266c-0.7431641,0.234375-1.6962891,0.4199219-2.8583984,0.5585938
			c-1.1640625,0.140625-2.6611328,0.2099609-4.4921875,0.2099609c-1.78125,0-3.2666016-0.0693359-4.4541016-0.2099609
			c-1.1884766-0.1386719-2.1416016-0.3242188-2.8583984-0.5585938c-0.7177734-0.2314453-1.2138672-0.5341797-1.4853516-0.9072266
			c-0.2724609-0.3720703-0.4082031-0.7910156-0.4082031-1.2568359V51.5045586c0-2.3740234,0.6689453-4.1894531,2.0048828-5.4462891
			s3.1181641-1.8852539,5.3457031-1.8852539h12.7695313c2.2753906,0,4.2314453,0.1748047,5.8652344,0.5234375
			c1.6328125,0.3496094,3.0439453,0.9321289,4.2314453,1.7460938c1.1875,0.8149414,2.1777344,1.8847656,2.9697266,3.2119141
			c0.7910156,1.3261719,1.484375,2.9672852,2.0791016,4.9223633l20.7871094,53.8344688h0.296875l21.5302734-53.6948204
			c0.6425781-1.9550781,1.3486328-3.6069336,2.1162109-4.9575195c0.7666016-1.3496094,1.6572266-2.4438477,2.6728516-3.2817383
			c1.0136719-0.8378906,2.2148438-1.4311523,3.6005859-1.7807617c1.3847656-0.3486328,2.9941406-0.5234375,4.8261719-0.5234375
			h13.140625c1.3359375,0,2.4873047,0.1635742,3.4521484,0.4887695c0.9648438,0.3261719,1.7558594,0.8032227,2.3759766,1.4311523
			c0.6181641,0.6289063,1.0878906,1.3964844,1.4101563,2.3046875c0.3212891,0.9072266,0.4824219,1.9438477,0.4824219,3.1069336
			V132.0113983z"/>
		<path fill="#569FE2" d="M632.234375,127.6822891c0.59375,1.6757889,0.9648438,3.0029373,1.1132813,3.9794998
			c0.1484375,0.9785156-0.0498047,1.7109375-0.59375,2.2001953c-0.5458984,0.4882813-1.5107422,0.7910156-2.8955078,0.9072266
			c-1.3867188,0.1162109-3.2919922,0.1748047-5.7167969,0.1748047c-2.5244141,0-4.4912109-0.0351563-5.9023438-0.1044922
			c-1.4101563-0.0703125-2.4873047-0.2099609-3.2294922-0.4189453c-0.7421875-0.2099609-1.2617188-0.5-1.5585938-0.8730469
			c-0.2978516-0.3720703-0.5458984-0.8603516-0.7431641-1.4658203l-6.4589844-18.1543045h-36.0810547l-6.0878906,17.6650467
			c-0.1982422,0.6523438-0.4580078,1.1992188-0.7802734,1.640625c-0.3222656,0.4433594-0.8417969,0.7919922-1.5585938,1.0478516
			c-0.7177734,0.2548828-1.7333984,0.4296875-3.0439453,0.5234375c-1.3115234,0.0927734-3.0322266,0.1396484-5.1601563,0.1396484
			c-2.2763672,0-4.0585938-0.0693359-5.3447266-0.2099609c-1.2880859-0.1386719-2.1787109-0.4765625-2.6728516-1.0117188
			c-0.4951172-0.5351563-0.6679688-1.2919922-0.5195313-2.2695313s0.5195313-2.2802734,1.1132813-3.9101639l29.6220703-80.1577148
			c0.2978516-0.7910156,0.6435547-1.4316406,1.0400391-1.9199219c0.3955078-0.4892578,1.0263672-0.8608398,1.8925781-1.1171875
			c0.8662109-0.2553711,2.0664063-0.4189453,3.6015625-0.4892578c1.5332031-0.0693359,3.5634766-0.1044922,6.0878906-0.1044922
			c2.9189453,0,5.2451172,0.0351563,6.9785156,0.1044922c1.7314453,0.0703125,3.0810547,0.2338867,4.0458984,0.4892578
			c0.9648438,0.2563477,1.6582031,0.6401367,2.0791016,1.1518555c0.4199219,0.5126953,0.7792969,1.2109375,1.0761719,2.0947266
			L632.234375,127.6822891z M588.1337891,61.4195976h-0.0742188l-13.5859375,38.4033165h27.2470703L588.1337891,61.4195976z"/>
		<path fill="#569FE2" d="M710.3212891,127.6129532c0.8916016,1.6298904,1.4726563,2.9316483,1.7451172,3.9101639
			c0.2714844,0.9765625,0.1113281,1.7226563-0.4824219,2.234375c-0.59375,0.5126953-1.6708984,0.8378906-3.2294922,0.9765625
			c-1.5595703,0.140625-3.7255859,0.2099609-6.4960938,0.2099609c-2.3271484,0-4.1582031-0.046875-5.4941406-0.1396484
			c-1.3369141-0.09375-2.3886719-0.2441406-3.1552734-0.4541016c-0.7685547-0.2089844-1.3251953-0.4990234-1.6708984-0.8720703
			c-0.3466797-0.3720703-0.6435547-0.8378906-0.890625-1.3964844L672.6064453,99.473793l-17.9667969,32.6079178
			c-0.296875,0.5585938-0.6191406,1.0244141-0.9648438,1.3964844c-0.3466797,0.3730469-0.9033203,0.6630859-1.6699219,0.8720703
			c-0.7685547,0.2099609-1.8320313,0.3603516-3.1923828,0.4541016c-1.3623047,0.0927734-3.1552734,0.1396484-5.3828125,0.1396484
			c-2.5742188,0-4.5664063-0.0693359-5.9765625-0.2099609c-1.4111328-0.1386719-2.3642578-0.4638672-2.8583984-0.9765625
			c-0.4951172-0.5117188-0.59375-1.2578125-0.296875-2.234375c0.296875-0.9785156,0.9150391-2.2802734,1.8564453-3.9101639
			l23.0146484-39.4506836l-21.3818359-37.0766563c-0.890625-1.6757813-1.4970703-3.0131836-1.8193359-4.0151367
			c-0.3222656-1-0.1982422-1.7451172,0.3720703-2.234375c0.5683594-0.4882813,1.6201172-0.7905273,3.1552734-0.9072266
			c1.5332031-0.1157227,3.7119141-0.1748047,6.5332031-0.1748047c2.3251953,0,4.1689453,0.046875,5.5302734,0.1396484
			c1.3613281,0.09375,2.4375,0.2441406,3.2294922,0.4541016c0.7919922,0.2089844,1.3486328,0.5004883,1.6708984,0.8725586
			c0.3212891,0.3730469,0.6308594,0.8378906,0.9277344,1.3964844l16.8535156,29.8847618l16.4072266-29.8847618
			c0.296875-0.5585938,0.6054688-1.0234375,0.9277344-1.3964844c0.3212891-0.3720703,0.8408203-0.6635742,1.5595703-0.8725586
			c0.7167969-0.2099609,1.7070313-0.3603516,2.9697266-0.4541016c1.2617188-0.0927734,3.0068359-0.1396484,5.2333984-0.1396484
			c2.4746094,0,4.4296875,0.059082,5.8652344,0.1748047c1.4355469,0.1166992,2.4248047,0.4306641,2.9697266,0.9423828
			c0.5439453,0.5126953,0.6796875,1.2568359,0.4082031,2.234375c-0.2724609,0.9775391-0.8291016,2.3041992-1.6699219,3.9799805
			l-21.3818359,36.8671837L710.3212891,127.6129532z"/>
	</g>
	<g>
		<path fill="#3D3584" d="M291.8657227,150.3385468c0,0.2470703-0.0131836,0.4619141-0.0390625,0.6445313
			c-0.0263672,0.1826172-0.0683594,0.3291016-0.1269531,0.4394531s-0.1303711,0.1923828-0.2148438,0.2441406
			c-0.0849609,0.0517578-0.1791992,0.078125-0.2832031,0.078125h-7.109375v21.9140625
			c0,0.1044922-0.0263672,0.1953125-0.078125,0.2734375c-0.0522461,0.078125-0.1435547,0.1396484-0.2734375,0.1855469
			c-0.1303711,0.0458984-0.3027344,0.0849609-0.5175781,0.1171875s-0.4853516,0.0488281-0.8105469,0.0488281
			c-0.3125,0-0.5795898-0.0166016-0.8007813-0.0488281c-0.2216797-0.0322266-0.3974609-0.0712891-0.5273438-0.1171875
			c-0.1303711-0.0458984-0.2216797-0.1074219-0.2734375-0.1855469c-0.0522461-0.078125-0.078125-0.1689453-0.078125-0.2734375
			v-21.9140625h-7.109375c-0.1044922,0-0.1987305-0.0263672-0.2832031-0.078125
			c-0.0849609-0.0517578-0.1533203-0.1337891-0.2050781-0.2441406c-0.0522461-0.1103516-0.0947266-0.2568359-0.1269531-0.4394531
			c-0.0327148-0.1826172-0.0488281-0.3974609-0.0488281-0.6445313s0.0161133-0.4658203,0.0488281-0.6542969
			c0.0322266-0.1884766,0.074707-0.3417969,0.1269531-0.4589844c0.0517578-0.1171875,0.1201172-0.2021484,0.2050781-0.2539063
			c0.0844727-0.0517578,0.1787109-0.078125,0.2832031-0.078125h17.578125c0.1040039,0,0.1982422,0.0263672,0.2832031,0.078125
			c0.0844727,0.0517578,0.15625,0.1367188,0.2148438,0.2539063s0.1005859,0.2705078,0.1269531,0.4589844
			C291.8525391,149.8727264,291.8657227,150.0914764,291.8657227,150.3385468z"/>
		<path fill="#3D3584" d="M311.3730469,173.6588593c0,0.1044922-0.0195313,0.1953125-0.0585938,0.2734375
			s-0.1230469,0.1435547-0.2539063,0.1953125c-0.1289063,0.0517578-0.3125,0.0908203-0.546875,0.1171875
			s-0.546875,0.0390625-0.9375,0.0390625c-0.3378906,0-0.6152344-0.0126953-0.8300781-0.0390625
			s-0.3867188-0.0683594-0.5175781-0.1269531c-0.1289063-0.0585938-0.2304688-0.1396484-0.3027344-0.2441406
			c-0.0703125-0.1044922-0.1328125-0.234375-0.1855469-0.390625l-2.3242188-5.9570313
			c-0.2734375-0.6767578-0.5566406-1.2988281-0.8496094-1.8652344s-0.640625-1.0546875-1.0449219-1.4648438
			c-0.4023438-0.4101563-0.8789063-0.7294922-1.4257813-0.9570313c-0.5463867-0.2275391-1.2041016-0.3417969-1.972168-0.3417969
			h-2.2460938v10.7617188c0,0.1044922-0.0292969,0.1953125-0.0878906,0.2734375s-0.1499023,0.1396484-0.2734375,0.1855469
			c-0.1240234,0.0458984-0.2929688,0.0849609-0.5078125,0.1171875s-0.4853516,0.0488281-0.8105469,0.0488281
			c-0.3256836,0-0.5957031-0.0166016-0.8105469-0.0488281s-0.3876953-0.0712891-0.5175781-0.1171875
			c-0.1303711-0.0458984-0.2216797-0.1074219-0.2734375-0.1855469c-0.0522461-0.078125-0.078125-0.1689453-0.078125-0.2734375
			v-23.3984375c0-0.5078125,0.1333008-0.8623047,0.4003906-1.0644531c0.2666016-0.2021484,0.5498047-0.3027344,0.8496094-0.3027344
			h5.3710938c0.6376953,0,1.1694336,0.0166016,1.5913086,0.0488281c0.4238281,0.0322266,0.8046875,0.0683594,1.1425781,0.1074219
			c0.9765625,0.1689453,1.8398438,0.4365234,2.5878906,0.8007813c0.75,0.3642578,1.3769531,0.8271484,1.8847656,1.3867188
			s0.8886719,1.2011719,1.1425781,1.9238281s0.3808594,1.5205078,0.3808594,2.3925781
			c0,0.8466797-0.1132813,1.6044922-0.3417969,2.2753906c-0.2265625,0.6708984-0.5566406,1.2626953-0.9863281,1.7773438
			s-0.9433594,0.9599609-1.5429688,1.3378906c-0.5976563,0.3779297-1.2695313,0.6962891-2.0117188,0.9570313
			c0.4179688,0.1826172,0.7949219,0.4130859,1.1328125,0.6933594c0.3398438,0.2802734,0.6542969,0.6152344,0.9472656,1.0058594
			s0.5703125,0.8398438,0.8300781,1.3476563c0.2617188,0.5078125,0.5214844,1.0810547,0.78125,1.71875l2.265625,5.5664063
			c0.1835938,0.46875,0.3007813,0.7978516,0.3515625,0.9863281
			C311.3476563,173.4078827,311.3730469,173.5543671,311.3730469,173.6588593z M306.3144531,155.904953
			c0-0.9892578-0.2207031-1.8261719-0.6640625-2.5097656c-0.4414063-0.6835938-1.1835938-1.1748047-2.2265625-1.4746094
			c-0.3242188-0.0908203-0.6933594-0.15625-1.1035156-0.1953125c-0.409668-0.0390625-0.9467773-0.0585938-1.6108398-0.0585938
			h-2.8320313v8.515625h3.28125c0.8852539,0,1.6499023-0.1074219,2.2944336-0.3222656s1.1816406-0.5146484,1.6113281-0.8984375
			s0.7460938-0.8369141,0.9472656-1.3574219C306.2148438,157.0836639,306.3144531,156.5172577,306.3144531,155.904953z"/>
		<path fill="#3D3584" d="M334.1621094,172.9752655c0.1044922,0.2861328,0.1591797,0.5175781,0.1660156,0.6933594
			s-0.0419922,0.3095703-0.1464844,0.4003906s-0.2763672,0.1494141-0.5175781,0.1757813s-0.5634766,0.0390625-0.9667969,0.0390625
			s-0.7255859-0.0097656-0.9667969-0.0292969s-0.4228516-0.0517578-0.546875-0.0976563s-0.2148438-0.1074219-0.2734375-0.1855469
			s-0.1142578-0.1757813-0.1660156-0.2929688l-2.1679688-6.1523438h-10.5078125l-2.0703125,6.0742188
			c-0.0390625,0.1171875-0.0908203,0.2177734-0.15625,0.3027344s-0.1591797,0.15625-0.2832031,0.2148438
			s-0.2998047,0.1005859-0.5273438,0.1269531s-0.5244141,0.0390625-0.8886719,0.0390625
			c-0.3779297,0-0.6865234-0.0166016-0.9277344-0.0488281s-0.4101563-0.0947266-0.5078125-0.1855469
			s-0.1435547-0.2246094-0.1367188-0.4003906s0.0615234-0.4072266,0.1660156-0.6933594l8.4765625-23.4765625
			c0.0517578-0.1435547,0.1201172-0.2607422,0.2050781-0.3515625s0.2080078-0.1630859,0.3710938-0.2148438
			s0.3710938-0.0878906,0.625-0.1074219s0.5761719-0.0292969,0.9667969-0.0292969
			c0.4169922,0,0.7617188,0.0097656,1.0351563,0.0292969s0.4951172,0.0556641,0.6640625,0.1074219
			s0.2998047,0.1269531,0.390625,0.2246094s0.1630859,0.2177734,0.2148438,0.3613281L334.1621094,172.9752655z
			 M323.2832031,152.2526093h-0.0195313l-4.3554688,12.5976563h8.7890625L323.2832031,152.2526093z"/>
		<path fill="#3D3584" d="M345.8574219,173.5807343c-0.0517578,0.1435547-0.1240234,0.2607422-0.2148438,0.3515625
			s-0.2177734,0.1630859-0.3808594,0.2148438s-0.3710938,0.0878906-0.625,0.1074219s-0.5693359,0.0292969-0.9472656,0.0292969
			c-0.2861328,0-0.5371094-0.0029297-0.7519531-0.0097656s-0.4003906-0.0224609-0.5566406-0.0488281
			s-0.2900391-0.0556641-0.4003906-0.0878906s-0.2050781-0.0751953-0.2832031-0.1269531s-0.1396484-0.1142578-0.1855469-0.1855469
			s-0.0878906-0.1591797-0.1269531-0.2636719l-8.2617188-23.4765625c-0.1044922-0.2861328-0.1591797-0.5175781-0.1660156-0.6933594
			s0.0488281-0.3095703,0.1660156-0.4003906s0.3056641-0.1494141,0.5664063-0.1757813s0.6123047-0.0390625,1.0546875-0.0390625
			c0.3642578,0,0.6542969,0.0097656,0.8691406,0.0292969s0.3808594,0.0556641,0.4980469,0.1074219
			s0.2050781,0.1201172,0.2636719,0.2050781s0.1142578,0.1923828,0.1660156,0.3222656l7.2460938,21.2695313h0.0195313
			l7.0507813-21.2304688c0.0390625-0.1435547,0.0849609-0.2607422,0.1367188-0.3515625s0.1435547-0.1630859,0.2734375-0.2148438
			s0.3125-0.0878906,0.546875-0.1074219s0.546875-0.0292969,0.9375-0.0292969c0.4033203,0,0.7226563,0.0166016,0.9570313,0.0488281
			s0.3935547,0.0947266,0.4785156,0.1855469s0.1171875,0.2246094,0.0976563,0.4003906s-0.0810547,0.4072266-0.1855469,0.6933594
			L345.8574219,173.5807343z"/>
		<path fill="#3D3584" d="M371.4003906,172.779953c0,0.234375-0.0126953,0.4394531-0.0390625,0.6152344
			s-0.0712891,0.3222656-0.1367188,0.4394531S371.0849609,174.0367889,371,174.0885468s-0.1787109,0.078125-0.2832031,0.078125
			h-12.1289063c-0.2998047,0-0.5830078-0.1005859-0.8496094-0.3027344s-0.4003906-0.5566406-0.4003906-1.0644531v-22.5390625
			c0-0.5078125,0.1337891-0.8623047,0.4003906-1.0644531s0.5498047-0.3027344,0.8496094-0.3027344h11.9921875
			c0.1044922,0,0.1982422,0.0263672,0.2832031,0.078125s0.1533203,0.1367188,0.2050781,0.2539063
			s0.0947266,0.2636719,0.1269531,0.4394531s0.0488281,0.3935547,0.0488281,0.6542969
			c0,0.234375-0.0166016,0.4394531-0.0488281,0.6152344s-0.0751953,0.3193359-0.1269531,0.4296875
			s-0.1201172,0.1923828-0.2050781,0.2441406s-0.1787109,0.078125-0.2832031,0.078125h-9.8828125v7.9296875h8.4765625
			c0.1044922,0,0.1982422,0.0292969,0.2832031,0.0878906s0.15625,0.1396484,0.2148438,0.2441406
			s0.1005859,0.2470703,0.1269531,0.4296875s0.0390625,0.3974609,0.0390625,0.6445313
			c0,0.234375-0.0126953,0.4365234-0.0390625,0.6054688s-0.0683594,0.3056641-0.1269531,0.4101563
			s-0.1298828,0.1787109-0.2148438,0.2246094s-0.1787109,0.0683594-0.2832031,0.0683594h-8.4765625v9.0429688h10.0195313
			c0.1044922,0,0.1982422,0.0263672,0.2832031,0.078125s0.1591797,0.1337891,0.2246094,0.2441406
			s0.1103516,0.2539063,0.1367188,0.4296875S371.4003906,172.5192108,371.4003906,172.779953z"/>
		<path fill="#3D3584" d="M388.9746094,172.701828c0,0.2607422-0.0126953,0.4785156-0.0390625,0.6542969
			s-0.0683594,0.3251953-0.1269531,0.4492188s-0.1298828,0.2148438-0.2148438,0.2734375s-0.1855469,0.0878906-0.3027344,0.0878906
			h-11.171875c-0.2998047,0-0.5830078-0.1005859-0.8496094-0.3027344s-0.4003906-0.5566406-0.4003906-1.0644531v-23.3984375
			c0-0.1044922,0.0263672-0.1953125,0.078125-0.2734375s0.1435547-0.1396484,0.2734375-0.1855469
			s0.3056641-0.0849609,0.5273438-0.1171875s0.4882813-0.0488281,0.8007813-0.0488281
			c0.3251953,0,0.5957031,0.0166016,0.8105469,0.0488281s0.3876953,0.0712891,0.5175781,0.1171875
			s0.2216797,0.1074219,0.2734375,0.1855469s0.078125,0.1689453,0.078125,0.2734375v21.8554688h9.0625
			c0.1171875,0,0.2177734,0.0292969,0.3027344,0.0878906s0.15625,0.1435547,0.2148438,0.2539063
			s0.1005859,0.2568359,0.1269531,0.4394531S388.9746094,172.4410858,388.9746094,172.701828z"/>
		<path fill="#3D3584" d="M415.5683594,150.3385468c0,0.2470703-0.0126953,0.4619141-0.0390625,0.6445313
			s-0.0683594,0.3291016-0.1269531,0.4394531s-0.1298828,0.1923828-0.2148438,0.2441406s-0.1787109,0.078125-0.2832031,0.078125
			h-7.109375v21.9140625c0,0.1044922-0.0263672,0.1953125-0.078125,0.2734375s-0.1435547,0.1396484-0.2734375,0.1855469
			s-0.3027344,0.0849609-0.5175781,0.1171875s-0.4853516,0.0488281-0.8105469,0.0488281
			c-0.3125,0-0.5791016-0.0166016-0.8007813-0.0488281s-0.3974609-0.0712891-0.5273438-0.1171875
			s-0.2216797-0.1074219-0.2734375-0.1855469s-0.078125-0.1689453-0.078125-0.2734375v-21.9140625h-7.109375
			c-0.1044922,0-0.1982422-0.0263672-0.2832031-0.078125s-0.1533203-0.1337891-0.2050781-0.2441406
			s-0.0947266-0.2568359-0.1269531-0.4394531s-0.0488281-0.3974609-0.0488281-0.6445313s0.0166016-0.4658203,0.0488281-0.6542969
			s0.0751953-0.3417969,0.1269531-0.4589844s0.1201172-0.2021484,0.2050781-0.2539063s0.1787109-0.078125,0.2832031-0.078125
			h17.578125c0.1044922,0,0.1982422,0.0263672,0.2832031,0.078125s0.15625,0.1367188,0.2148438,0.2539063
			s0.1005859,0.2705078,0.1269531,0.4589844S415.5683594,150.0914764,415.5683594,150.3385468z"/>
		<path fill="#3D3584" d="M432.2832031,172.779953c0,0.234375-0.0126953,0.4394531-0.0390625,0.6152344
			s-0.0712891,0.3222656-0.1367188,0.4394531s-0.1396484,0.2021484-0.2246094,0.2539063s-0.1787109,0.078125-0.2832031,0.078125
			h-12.1289063c-0.2998047,0-0.5830078-0.1005859-0.8496094-0.3027344s-0.4003906-0.5566406-0.4003906-1.0644531v-22.5390625
			c0-0.5078125,0.1337891-0.8623047,0.4003906-1.0644531s0.5498047-0.3027344,0.8496094-0.3027344h11.9921875
			c0.1044922,0,0.1982422,0.0263672,0.2832031,0.078125s0.1533203,0.1367188,0.2050781,0.2539063
			s0.0947266,0.2636719,0.1269531,0.4394531s0.0488281,0.3935547,0.0488281,0.6542969
			c0,0.234375-0.0166016,0.4394531-0.0488281,0.6152344s-0.0751953,0.3193359-0.1269531,0.4296875
			s-0.1201172,0.1923828-0.2050781,0.2441406s-0.1787109,0.078125-0.2832031,0.078125h-9.8828125v7.9296875h8.4765625
			c0.1044922,0,0.1982422,0.0292969,0.2832031,0.0878906s0.15625,0.1396484,0.2148438,0.2441406
			s0.1005859,0.2470703,0.1269531,0.4296875s0.0390625,0.3974609,0.0390625,0.6445313
			c0,0.234375-0.0126953,0.4365234-0.0390625,0.6054688s-0.0683594,0.3056641-0.1269531,0.4101563
			s-0.1298828,0.1787109-0.2148438,0.2246094s-0.1787109,0.0683594-0.2832031,0.0683594h-8.4765625v9.0429688h10.0195313
			c0.1044922,0,0.1982422,0.0263672,0.2832031,0.078125s0.1591797,0.1337891,0.2246094,0.2441406
			s0.1103516,0.2539063,0.1367188,0.4296875S432.2832031,172.5192108,432.2832031,172.779953z"/>
		<path fill="#3D3584" d="M453.1582031,170.592453c0,0.2080078-0.0068359,0.390625-0.0195313,0.546875
			s-0.0361328,0.2929688-0.0683594,0.4101563s-0.0751953,0.2216797-0.1269531,0.3125s-0.1435547,0.2021484-0.2734375,0.3320313
			s-0.4033203,0.3291016-0.8203125,0.5957031s-0.9345703,0.5273438-1.5527344,0.78125s-1.328125,0.46875-2.1289063,0.6445313
			s-1.6767578,0.2636719-2.6269531,0.2636719c-1.640625,0-3.1220703-0.2734375-4.4433594-0.8203125
			s-2.4482422-1.3544922-3.3789063-2.421875s-1.6474609-2.3857422-2.1484375-3.9550781s-0.7519531-3.3759766-0.7519531-5.4199219
			c0-2.0966797,0.2705078-3.9648438,0.8105469-5.6054688s1.2988281-3.0302734,2.2753906-4.1699219
			s2.1455078-2.0087891,3.5058594-2.6074219s2.8681641-0.8984375,4.5214844-0.8984375
			c0.7294922,0,1.4384766,0.0683594,2.1289063,0.2050781s1.328125,0.3095703,1.9140625,0.5175781
			s1.1064453,0.4492188,1.5625,0.7226563s0.7714844,0.4980469,0.9472656,0.6738281s0.2900391,0.3095703,0.3417969,0.4003906
			s0.0947266,0.1982422,0.1269531,0.3222656s0.0585938,0.2705078,0.078125,0.4394531s0.0292969,0.3710938,0.0292969,0.6054688
			c0,0.2607422-0.0126953,0.4814453-0.0390625,0.6640625s-0.0654297,0.3349609-0.1181641,0.4589844
			s-0.1142578,0.2148438-0.1865234,0.2734375s-0.1601563,0.0878906-0.2646484,0.0878906
			c-0.1835938,0-0.4384766-0.1269531-0.7666016-0.3808594c-0.3271484-0.2539063-0.7490234-0.5341797-1.2666016-0.8398438
			c-0.5166016-0.3056641-1.1455078-0.5859375-1.8847656-0.8398438s-1.6259766-0.3808594-2.6601563-0.3808594
			c-1.1259766,0-2.1503906,0.2246094-3.0732422,0.6738281s-1.7119141,1.1103516-2.3662109,1.9824219
			s-1.1611328,1.9365234-1.5214844,3.1933594s-0.5400391,2.6923828-0.5400391,4.3066406
			c0,1.6015625,0.1738281,3.0175781,0.5205078,4.2480469s0.84375,2.2587891,1.4921875,3.0859375
			c0.6474609,0.8271484,1.4433594,1.4521484,2.3857422,1.875s2.0087891,0.6347656,3.2001953,0.6347656
			c1.0078125,0,1.8886719-0.1240234,2.640625-0.3710938c0.7529297-0.2470703,1.3945313-0.5244141,1.9248047-0.8300781
			c0.5292969-0.3056641,0.9648438-0.5830078,1.3056641-0.8300781c0.3398438-0.2470703,0.6083984-0.3710938,0.8046875-0.3710938
			c0.0917969,0,0.1708984,0.0195313,0.2353516,0.0585938c0.0654297,0.0390625,0.1181641,0.1142578,0.1572266,0.2246094
			s0.0693359,0.2636719,0.0888672,0.4589844S453.1582031,170.2926483,453.1582031,170.592453z"/>
		<path fill="#3D3584" d="M474.8144531,173.6588593c0,0.1044922-0.0263672,0.1953125-0.078125,0.2734375
			s-0.1435547,0.1396484-0.2734375,0.1855469s-0.3027344,0.0849609-0.5175781,0.1171875s-0.4785156,0.0488281-0.7910156,0.0488281
			c-0.3388672,0-0.6123047-0.0166016-0.8203125-0.0488281s-0.3779297-0.0712891-0.5078125-0.1171875
			s-0.2216797-0.1074219-0.2734375-0.1855469s-0.078125-0.1689453-0.078125-0.2734375v-11.2109375h-11.5039063v11.2109375
			c0,0.1044922-0.0263672,0.1953125-0.078125,0.2734375s-0.1435547,0.1396484-0.2734375,0.1855469
			s-0.3027344,0.0849609-0.5175781,0.1171875s-0.4853516,0.0488281-0.8105469,0.0488281
			c-0.3125,0-0.5791016-0.0166016-0.8007813-0.0488281s-0.3974609-0.0712891-0.5273438-0.1171875
			s-0.2216797-0.1074219-0.2734375-0.1855469s-0.078125-0.1689453-0.078125-0.2734375v-24.2578125
			c0-0.1044922,0.0263672-0.1953125,0.078125-0.2734375s0.1435547-0.1396484,0.2734375-0.1855469
			s0.3056641-0.0849609,0.5273438-0.1171875s0.4882813-0.0488281,0.8007813-0.0488281
			c0.3251953,0,0.5957031,0.0166016,0.8105469,0.0488281s0.3876953,0.0712891,0.5175781,0.1171875
			s0.2216797,0.1074219,0.2734375,0.1855469s0.078125,0.1689453,0.078125,0.2734375v10.1171875h11.5039063v-10.1171875
			c0-0.1044922,0.0263672-0.1953125,0.078125-0.2734375s0.1435547-0.1396484,0.2734375-0.1855469
			s0.2998047-0.0849609,0.5078125-0.1171875s0.4814453-0.0488281,0.8203125-0.0488281
			c0.3125,0,0.5761719,0.0166016,0.7910156,0.0488281s0.3876953,0.0712891,0.5175781,0.1171875
			s0.2216797,0.1074219,0.2734375,0.1855469s0.078125,0.1689453,0.078125,0.2734375V173.6588593z"/>
		<path fill="#3D3584" d="M499.6347656,172.779953c0,0.2607422-0.0439453,0.4814453-0.1308594,0.6640625
			c-0.0878906,0.1826172-0.2021484,0.3320313-0.34375,0.4492188s-0.2998047,0.2021484-0.4746094,0.2539063
			c-0.1757813,0.0517578-0.3505859,0.078125-0.5253906,0.078125h-1.1113281c-0.3496094,0-0.65625-0.0361328-0.9189453-0.1074219
			s-0.5117188-0.2021484-0.7470703-0.390625s-0.4716797-0.4462891-0.7070313-0.7714844s-0.4863281-0.7421875-0.75-1.25
			l-7.7099609-14.375c-0.4033203-0.7421875-0.8095703-1.5205078-1.21875-2.3339844
			c-0.4101563-0.8134766-0.7910156-1.6044922-1.1435547-2.3730469h-0.0390625
			c0.0263672,0.9375,0.0458984,1.8945313,0.0585938,2.8710938s0.0195313,1.9462891,0.0195313,2.9101563v15.2539063
			c0,0.0908203-0.0273438,0.1787109-0.0820313,0.2636719c-0.0556641,0.0849609-0.1484375,0.1494141-0.2783203,0.1953125
			c-0.1308594,0.0458984-0.3027344,0.0849609-0.515625,0.1171875s-0.484375,0.0488281-0.8144531,0.0488281
			c-0.3291016,0-0.6005859-0.0166016-0.8134766-0.0488281s-0.3818359-0.0712891-0.5048828-0.1171875
			c-0.1240234-0.0458984-0.2128906-0.1103516-0.2685547-0.1953125c-0.0546875-0.0849609-0.0820313-0.1728516-0.0820313-0.2636719
			v-23.3203125c0-0.5205078,0.1474609-0.8916016,0.4433594-1.1132813s0.6181641-0.3320313,0.9677734-0.3320313h1.6533203
			c0.3896484,0,0.7148438,0.0322266,0.9775391,0.0976563c0.2617188,0.0654297,0.4970703,0.1728516,0.7050781,0.3222656
			s0.4101563,0.3583984,0.6054688,0.625c0.1943359,0.2666016,0.3984375,0.6025391,0.6132813,1.0058594l5.9267578,11.09375
			c0.3652344,0.6767578,0.7167969,1.3378906,1.0576172,1.9824219c0.3388672,0.6445313,0.6660156,1.2792969,0.9814453,1.9042969
			c0.3144531,0.625,0.6259766,1.2402344,0.9335938,1.8457031c0.3085938,0.6054688,0.6142578,1.2138672,0.9160156,1.8261719
			h0.0195313c-0.0263672-1.0283203-0.0419922-2.0996094-0.0488281-3.2128906s-0.0097656-2.1845703-0.0097656-3.2128906v-13.7109375
			c0-0.0908203,0.0273438-0.1757813,0.0820313-0.2539063c0.0556641-0.078125,0.1474609-0.1464844,0.2783203-0.2050781
			s0.3027344-0.1005859,0.515625-0.1269531s0.4912109-0.0390625,0.8349609-0.0390625
			c0.3017578,0,0.5625,0.0126953,0.7822266,0.0390625s0.3916016,0.0683594,0.515625,0.1269531
			s0.2128906,0.1269531,0.2685547,0.2050781c0.0546875,0.078125,0.0820313,0.1630859,0.0820313,0.2539063V172.779953z"/>
		<path fill="#3D3584" d="M526.5253906,161.2369843c0,2.0439453-0.2412109,3.8867188-0.7226563,5.5273438
			s-1.2011719,3.0371094-2.1582031,4.1894531s-2.1582031,2.0380859-3.6035156,2.65625s-3.1318359,0.9277344-5.0585938,0.9277344
			c-1.9013672,0-3.5449219-0.2832031-4.9316406-0.8496094s-2.5322266-1.3896484-3.4375-2.4707031
			s-1.5791016-2.421875-2.0214844-4.0234375s-0.6640625-3.4443359-0.6640625-5.5273438
			c0-1.9921875,0.2412109-3.8017578,0.7226563-5.4296875s1.2041016-3.0107422,2.1679688-4.1503906
			s2.1679688-2.0185547,3.6132813-2.6367188s3.1318359-0.9277344,5.0585938-0.9277344
			c1.8623047,0,3.4833984,0.2802734,4.8632813,0.8398438s2.5292969,1.3769531,3.4472656,2.4511719
			s1.6015625,2.4023438,2.0507813,3.984375S526.5253906,159.1930389,526.5253906,161.2369843z M522.9707031,161.4713593
			c0-1.4326172-0.1269531-2.7636719-0.3808594-3.9941406c-0.2529297-1.2304688-0.6757813-2.2978516-1.2675781-3.203125
			s-1.3818359-1.6113281-2.3701172-2.1191406s-2.2109375-0.7617188-3.6669922-0.7617188
			c-1.4570313,0-2.6787109,0.2734375-3.6669922,0.8203125c-0.9892578,0.546875-1.7919922,1.2763672-2.4091797,2.1875
			c-0.6181641,0.9111328-1.0605469,1.9755859-1.3271484,3.1933594s-0.3994141,2.4970703-0.3994141,3.8378906
			c0,1.484375,0.1230469,2.8515625,0.3701172,4.1015625s0.6630859,2.3271484,1.2490234,3.2324219
			c0.5849609,0.9052734,1.3681641,1.6083984,2.3505859,2.109375c0.9814453,0.5009766,2.2138672,0.7519531,3.6962891,0.7519531
			c1.4697266,0,2.7050781-0.2734375,3.7060547-0.8203125c1.0019531-0.546875,1.8076172-1.2861328,2.4189453-2.2167969
			s1.046875-2.0087891,1.3066406-3.2324219C522.8408203,164.1344452,522.9707031,162.8385468,522.9707031,161.4713593z"/>
		<path fill="#3D3584" d="M543.9433594,172.701828c0,0.2607422-0.0126953,0.4785156-0.0390625,0.6542969
			s-0.0683594,0.3251953-0.1269531,0.4492188s-0.1298828,0.2148438-0.2148438,0.2734375s-0.1855469,0.0878906-0.3027344,0.0878906
			h-11.171875c-0.2998047,0-0.5830078-0.1005859-0.8496094-0.3027344s-0.4003906-0.5566406-0.4003906-1.0644531v-23.3984375
			c0-0.1044922,0.0263672-0.1953125,0.078125-0.2734375s0.1435547-0.1396484,0.2734375-0.1855469
			s0.3056641-0.0849609,0.5273438-0.1171875s0.4882813-0.0488281,0.8007813-0.0488281
			c0.3251953,0,0.5957031,0.0166016,0.8105469,0.0488281s0.3876953,0.0712891,0.5175781,0.1171875
			s0.2216797,0.1074219,0.2734375,0.1855469s0.078125,0.1689453,0.078125,0.2734375v21.8554688h9.0625
			c0.1171875,0,0.2177734,0.0292969,0.3027344,0.0878906s0.15625,0.1435547,0.2148438,0.2539063
			s0.1005859,0.2568359,0.1269531,0.4394531S543.9433594,172.4410858,543.9433594,172.701828z"/>
		<path fill="#3D3584" d="M566.9472656,161.2369843c0,2.0439453-0.2412109,3.8867188-0.7226563,5.5273438
			s-1.2011719,3.0371094-2.1582031,4.1894531s-2.1582031,2.0380859-3.6035156,2.65625s-3.1318359,0.9277344-5.0585938,0.9277344
			c-1.9013672,0-3.5449219-0.2832031-4.9316406-0.8496094s-2.5322266-1.3896484-3.4375-2.4707031
			s-1.5791016-2.421875-2.0214844-4.0234375s-0.6640625-3.4443359-0.6640625-5.5273438
			c0-1.9921875,0.2412109-3.8017578,0.7226563-5.4296875s1.2041016-3.0107422,2.1679688-4.1503906
			s2.1679688-2.0185547,3.6132813-2.6367188s3.1318359-0.9277344,5.0585938-0.9277344
			c1.8623047,0,3.4833984,0.2802734,4.8632813,0.8398438s2.5292969,1.3769531,3.4472656,2.4511719
			s1.6015625,2.4023438,2.0507813,3.984375S566.9472656,159.1930389,566.9472656,161.2369843z M563.3925781,161.4713593
			c0-1.4326172-0.1269531-2.7636719-0.3808594-3.9941406c-0.2529297-1.2304688-0.6757813-2.2978516-1.2675781-3.203125
			s-1.3818359-1.6113281-2.3701172-2.1191406s-2.2109375-0.7617188-3.6669922-0.7617188
			c-1.4570313,0-2.6787109,0.2734375-3.6669922,0.8203125c-0.9892578,0.546875-1.7919922,1.2763672-2.4091797,2.1875
			c-0.6181641,0.9111328-1.0605469,1.9755859-1.3271484,3.1933594s-0.3994141,2.4970703-0.3994141,3.8378906
			c0,1.484375,0.1230469,2.8515625,0.3701172,4.1015625s0.6630859,2.3271484,1.2490234,3.2324219
			c0.5849609,0.9052734,1.3681641,1.6083984,2.3505859,2.109375c0.9814453,0.5009766,2.2138672,0.7519531,3.6962891,0.7519531
			c1.4697266,0,2.7050781-0.2734375,3.7060547-0.8203125c1.0019531-0.546875,1.8076172-1.2861328,2.4189453-2.2167969
			s1.046875-2.0087891,1.3066406-3.2324219C563.2626953,164.1344452,563.3925781,162.8385468,563.3925781,161.4713593z"/>
		<path fill="#3D3584" d="M590.2441406,152.3307343c0,0.2470703-0.0126953,0.4658203-0.0390625,0.6542969
			s-0.0654297,0.3447266-0.1171875,0.46875s-0.1171875,0.2119141-0.1953125,0.2636719s-0.1630859,0.078125-0.2539063,0.078125
			c-0.15625,0-0.4169922-0.1240234-0.78125-0.3710938s-0.8525391-0.5205078-1.4648438-0.8203125
			s-1.3447266-0.5732422-2.1972656-0.8203125s-1.8652344-0.3710938-3.0371094-0.3710938
			c-1.3935547,0-2.6435547,0.2539063-3.75,0.7617188s-2.0439453,1.2109375-2.8125,2.109375s-1.3574219,1.9658203-1.7675781,3.203125
			s-0.6152344,2.578125-0.6152344,4.0234375c0,1.6142578,0.2246094,3.046875,0.6738281,4.296875
			s1.0712891,2.3046875,1.8652344,3.1640625s1.7412109,1.5107422,2.8417969,1.953125s2.3076172,0.6640625,3.6230469,0.6640625
			c0.78125,0,1.5722656-0.0947266,2.3730469-0.2832031s1.5458984-0.4716797,2.2363281-0.8496094v-7.3632813h-5.859375
			c-0.2216797,0-0.3876953-0.1103516-0.4980469-0.3320313s-0.1660156-0.5664063-0.1660156-1.0351563
			c0-0.2470703,0.0126953-0.4589844,0.0390625-0.6347656s0.0683594-0.3193359,0.1269531-0.4296875
			s0.1269531-0.1923828,0.2050781-0.2441406s0.1757813-0.078125,0.2929688-0.078125h8.0273438
			c0.1435547,0,0.2861328,0.0263672,0.4296875,0.078125s0.2734375,0.1298828,0.390625,0.234375
			s0.2080078,0.2470703,0.2734375,0.4296875s0.0976563,0.390625,0.0976563,0.625v9.6289063
			c0,0.3388672-0.0585938,0.6318359-0.1757813,0.8789063s-0.3642578,0.4658203-0.7421875,0.6542969
			s-0.8662109,0.3935547-1.4648438,0.6152344s-1.2177734,0.4101563-1.8554688,0.5664063s-1.2822266,0.2734375-1.9335938,0.3515625
			s-1.2958984,0.1171875-1.9335938,0.1171875c-1.953125,0-3.6982422-0.3027344-5.234375-0.9082031
			s-2.8349609-1.4677734-3.8964844-2.5878906s-1.8720703-2.4609375-2.4316406-4.0234375s-0.8398438-3.3076172-0.8398438-5.234375
			c0-2.0048828,0.3027344-3.8212891,0.9082031-5.4492188s1.4580078-3.0146484,2.5585938-4.1601563
			s2.421875-2.0341797,3.9648438-2.6660156s3.2519531-0.9472656,5.1269531-0.9472656
			c0.9638672,0,1.8681641,0.0849609,2.7148438,0.2539063s1.5986328,0.3681641,2.2558594,0.5957031
			s1.2109375,0.4755859,1.6601563,0.7421875s0.7587891,0.4853516,0.9277344,0.6542969s0.2861328,0.3642578,0.3515625,0.5859375
			S590.2441406,151.9137421,590.2441406,152.3307343z"/>
		<path fill="#3D3584" d="M602.9550781,164.342453v9.3164063c0,0.1044922-0.0263672,0.1953125-0.078125,0.2734375
			s-0.1425781,0.1396484-0.2714844,0.1855469c-0.1298828,0.0458984-0.3046875,0.0849609-0.5244141,0.1171875
			s-0.4853516,0.0488281-0.7958984,0.0488281c-0.3242188,0-0.5927734-0.0166016-0.8056641-0.0488281
			c-0.2138672-0.0322266-0.3886719-0.0712891-0.5244141-0.1171875c-0.1367188-0.0458984-0.2304688-0.1074219-0.2822266-0.1855469
			s-0.0771484-0.1689453-0.0771484-0.2734375v-9.3164063l-7.1484375-14.2578125
			c-0.1435547-0.2998047-0.2314453-0.5341797-0.2636719-0.703125s0-0.2998047,0.0976563-0.390625
			s0.2734375-0.1494141,0.5273438-0.1757813s0.5957031-0.0390625,1.0253906-0.0390625
			c0.390625,0,0.7060547,0.0126953,0.9472656,0.0390625s0.4326172,0.0615234,0.5761719,0.1074219
			s0.2509766,0.1103516,0.3222656,0.1953125s0.1396484,0.1923828,0.2050781,0.3222656l3.4960938,7.265625
			c0.3242188,0.6904297,0.6484375,1.4130859,0.9716797,2.1679688c0.3242188,0.7548828,0.6542969,1.5166016,0.9912109,2.2851563
			h0.0380859c0.2978516-0.7421875,0.6054688-1.4814453,0.9228516-2.2167969
			c0.3164063-0.7353516,0.6376953-1.4619141,0.9628906-2.1777344l3.515625-7.3046875
			c0.0390625-0.1298828,0.0947266-0.2412109,0.1660156-0.3320313s0.1689453-0.1591797,0.2929688-0.2050781
			s0.2958984-0.0810547,0.5175781-0.1074219s0.5009766-0.0390625,0.8398438-0.0390625
			c0.46875,0,0.8369141,0.0166016,1.1035156,0.0488281s0.4521484,0.0947266,0.5566406,0.1855469
			s0.1396484,0.2216797,0.1074219,0.390625s-0.1201172,0.3974609-0.2636719,0.6835938L602.9550781,164.342453z"/>
		<path fill="#3D3584" d="M635.0175781,167.076828c0,1.1845703-0.2177734,2.2392578-0.6542969,3.1640625
			s-1.0419922,1.7089844-1.8164063,2.3535156s-1.6865234,1.1298828-2.734375,1.4550781s-2.1777344,0.4882813-3.3886719,0.4882813
			c-0.8466797,0-1.6308594-0.0712891-2.3535156-0.2148438s-1.3671875-0.3193359-1.9335938-0.5273438
			s-1.0419922-0.4228516-1.4257813-0.6445313s-0.6513672-0.4101563-0.8007813-0.5664063s-0.2607422-0.3544922-0.3320313-0.5957031
			s-0.1074219-0.5634766-0.1074219-0.9667969c0-0.2861328,0.0126953-0.5244141,0.0390625-0.7128906
			s0.0654297-0.3417969,0.1171875-0.4589844s0.1171875-0.1982422,0.1953125-0.2441406s0.1689453-0.0683594,0.2734375-0.0683594
			c0.1826172,0,0.4394531,0.1103516,0.7714844,0.3320313s0.7587891,0.4619141,1.2792969,0.7226563
			s1.1494141,0.5048828,1.8847656,0.7324219s1.5849609,0.3417969,2.5488281,0.3417969
			c0.7294922,0,1.3964844-0.0976563,2.0019531-0.2929688s1.1259766-0.4716797,1.5625-0.8300781
			s0.7714844-0.7978516,1.0058594-1.3183594s0.3515625-1.1132813,0.3515625-1.7773438
			c0-0.7158203-0.1630859-1.328125-0.4882813-1.8359375s-0.7548828-0.9541016-1.2890625-1.3378906
			s-1.1425781-0.7353516-1.8261719-1.0546875s-1.3837891-0.6445313-2.0996094-0.9765625s-1.4130859-0.7001953-2.0898438-1.1035156
			s-1.2822266-0.8789063-1.8164063-1.4257813s-0.9667969-1.1884766-1.2988281-1.9238281s-0.4980469-1.6181641-0.4980469-2.6464844
			c0-1.0546875,0.1923828-1.9951172,0.5761719-2.8222656s0.9179688-1.5205078,1.6015625-2.0800781
			s1.4970703-0.9863281,2.4414063-1.2792969s1.9628906-0.4394531,3.0566406-0.4394531
			c0.5595703,0,1.1230469,0.0488281,1.6894531,0.1464844s1.1005859,0.2275391,1.6015625,0.390625
			s0.9472656,0.3447266,1.3378906,0.546875s0.6474609,0.3642578,0.7714844,0.4882813s0.2050781,0.2216797,0.2441406,0.2929688
			s0.0712891,0.1630859,0.0976563,0.2734375s0.0458984,0.2441406,0.0585938,0.4003906s0.0195313,0.3583984,0.0195313,0.6054688
			c0,0.234375-0.0097656,0.4423828-0.0292969,0.625s-0.0488281,0.3349609-0.0878906,0.4589844
			s-0.0947266,0.2148438-0.1660156,0.2734375s-0.1533203,0.0878906-0.2441406,0.0878906
			c-0.1435547,0-0.3681641-0.0908203-0.6738281-0.2734375s-0.6806641-0.3876953-1.1230469-0.6152344
			s-0.9667969-0.4365234-1.5722656-0.625s-1.2861328-0.2832031-2.0410156-0.2832031
			c-0.703125,0-1.3154297,0.0947266-1.8359375,0.2832031s-0.9501953,0.4394531-1.2890625,0.7519531
			s-0.5927734,0.6835938-0.7617188,1.1132813s-0.2539063,0.8857422-0.2539063,1.3671875
			c0,0.703125,0.1630859,1.3085938,0.4882813,1.8164063s0.7587891,0.9570313,1.2988281,1.3476563
			s1.1552734,0.7490234,1.8457031,1.0742188s1.3935547,0.6542969,2.109375,0.9863281s1.4189453,0.6962891,2.109375,1.09375
			s1.3056641,0.8662109,1.8457031,1.40625s0.9765625,1.1787109,1.3085938,1.9140625S635.0175781,166.0738983,635.0175781,167.076828
			z"/>
		<path fill="#3D3584" d="M654.3886719,150.3385468c0,0.2470703-0.0126953,0.4619141-0.0390625,0.6445313
			s-0.0683594,0.3291016-0.1269531,0.4394531s-0.1298828,0.1923828-0.2148438,0.2441406s-0.1787109,0.078125-0.2832031,0.078125
			h-7.109375v21.9140625c0,0.1044922-0.0263672,0.1953125-0.078125,0.2734375s-0.1435547,0.1396484-0.2734375,0.1855469
			s-0.3027344,0.0849609-0.5175781,0.1171875s-0.4853516,0.0488281-0.8105469,0.0488281
			c-0.3125,0-0.5791016-0.0166016-0.8007813-0.0488281s-0.3974609-0.0712891-0.5273438-0.1171875
			s-0.2216797-0.1074219-0.2734375-0.1855469s-0.078125-0.1689453-0.078125-0.2734375v-21.9140625h-7.109375
			c-0.1044922,0-0.1982422-0.0263672-0.2832031-0.078125s-0.1533203-0.1337891-0.2050781-0.2441406
			s-0.0947266-0.2568359-0.1269531-0.4394531s-0.0488281-0.3974609-0.0488281-0.6445313s0.0166016-0.4658203,0.0488281-0.6542969
			s0.0751953-0.3417969,0.1269531-0.4589844s0.1201172-0.2021484,0.2050781-0.2539063s0.1787109-0.078125,0.2832031-0.078125
			h17.578125c0.1044922,0,0.1982422,0.0263672,0.2832031,0.078125s0.15625,0.1367188,0.2148438,0.2539063
			s0.1005859,0.2705078,0.1269531,0.4589844S654.3886719,150.0914764,654.3886719,150.3385468z"/>
		<path fill="#3D3584" d="M677.0800781,161.2369843c0,2.0439453-0.2412109,3.8867188-0.7226563,5.5273438
			s-1.2011719,3.0371094-2.1582031,4.1894531s-2.1582031,2.0380859-3.6035156,2.65625s-3.1318359,0.9277344-5.0585938,0.9277344
			c-1.9013672,0-3.5449219-0.2832031-4.9316406-0.8496094s-2.5322266-1.3896484-3.4375-2.4707031
			s-1.5791016-2.421875-2.0214844-4.0234375s-0.6640625-3.4443359-0.6640625-5.5273438
			c0-1.9921875,0.2412109-3.8017578,0.7226563-5.4296875s1.2041016-3.0107422,2.1679688-4.1503906
			s2.1679688-2.0185547,3.6132813-2.6367188s3.1318359-0.9277344,5.0585938-0.9277344
			c1.8623047,0,3.4833984,0.2802734,4.8632813,0.8398438s2.5292969,1.3769531,3.4472656,2.4511719
			s1.6015625,2.4023438,2.0507813,3.984375S677.0800781,159.1930389,677.0800781,161.2369843z M673.5253906,161.4713593
			c0-1.4326172-0.1269531-2.7636719-0.3808594-3.9941406c-0.2529297-1.2304688-0.6757813-2.2978516-1.2675781-3.203125
			s-1.3818359-1.6113281-2.3701172-2.1191406s-2.2109375-0.7617188-3.6669922-0.7617188
			c-1.4570313,0-2.6787109,0.2734375-3.6669922,0.8203125c-0.9892578,0.546875-1.7919922,1.2763672-2.4091797,2.1875
			c-0.6181641,0.9111328-1.0605469,1.9755859-1.3271484,3.1933594s-0.3994141,2.4970703-0.3994141,3.8378906
			c0,1.484375,0.1230469,2.8515625,0.3701172,4.1015625s0.6630859,2.3271484,1.2490234,3.2324219
			c0.5849609,0.9052734,1.3681641,1.6083984,2.3505859,2.109375c0.9814453,0.5009766,2.2138672,0.7519531,3.6962891,0.7519531
			c1.4697266,0,2.7050781-0.2734375,3.7060547-0.8203125c1.0019531-0.546875,1.8076172-1.2861328,2.4189453-2.2167969
			s1.046875-2.0087891,1.3066406-3.2324219C673.3955078,164.1344452,673.5253906,162.8385468,673.5253906,161.4713593z"/>
		<path fill="#3D3584" d="M698.2480469,173.6588593c0,0.1044922-0.0195313,0.1953125-0.0585938,0.2734375
			s-0.1240234,0.1435547-0.2539063,0.1953125s-0.3125,0.0908203-0.546875,0.1171875s-0.546875,0.0390625-0.9375,0.0390625
			c-0.3388672,0-0.6152344-0.0126953-0.8300781-0.0390625s-0.3876953-0.0683594-0.5175781-0.1269531
			s-0.2314453-0.1396484-0.3027344-0.2441406s-0.1337891-0.234375-0.1855469-0.390625l-2.3242188-5.9570313
			c-0.2734375-0.6767578-0.5566406-1.2988281-0.8496094-1.8652344s-0.6416016-1.0546875-1.0449219-1.4648438
			s-0.8789063-0.7294922-1.4257813-0.9570313s-1.2041016-0.3417969-1.9726563-0.3417969h-2.2460938v10.7617188
			c0,0.1044922-0.0292969,0.1953125-0.0878906,0.2734375s-0.1494141,0.1396484-0.2734375,0.1855469
			s-0.2929688,0.0849609-0.5078125,0.1171875s-0.4853516,0.0488281-0.8105469,0.0488281s-0.5957031-0.0166016-0.8105469-0.0488281
			s-0.3876953-0.0712891-0.5175781-0.1171875s-0.2216797-0.1074219-0.2734375-0.1855469s-0.078125-0.1689453-0.078125-0.2734375
			v-23.3984375c0-0.5078125,0.1337891-0.8623047,0.4003906-1.0644531s0.5498047-0.3027344,0.8496094-0.3027344h5.3710938
			c0.6376953,0,1.1689453,0.0166016,1.5917969,0.0488281s0.8037109,0.0683594,1.1425781,0.1074219
			c0.9765625,0.1689453,1.8388672,0.4365234,2.5878906,0.8007813s1.3769531,0.8271484,1.8847656,1.3867188
			s0.8886719,1.2011719,1.1425781,1.9238281s0.3808594,1.5205078,0.3808594,2.3925781
			c0,0.8466797-0.1142578,1.6044922-0.3417969,2.2753906s-0.5566406,1.2626953-0.9863281,1.7773438
			s-0.9443359,0.9599609-1.5429688,1.3378906s-1.2695313,0.6962891-2.0117188,0.9570313
			c0.4169922,0.1826172,0.7939453,0.4130859,1.1328125,0.6933594s0.6542969,0.6152344,0.9472656,1.0058594
			s0.5693359,0.8398438,0.8300781,1.3476563s0.5205078,1.0810547,0.78125,1.71875l2.265625,5.5664063
			c0.1826172,0.46875,0.2998047,0.7978516,0.3515625,0.9863281S698.2480469,173.5543671,698.2480469,173.6588593z
			 M693.1894531,155.904953c0-0.9892578-0.2216797-1.8261719-0.6640625-2.5097656s-1.1845703-1.1748047-2.2265625-1.4746094
			c-0.3251953-0.0908203-0.6933594-0.15625-1.1035156-0.1953125s-0.9472656-0.0585938-1.6113281-0.0585938h-2.8320313v8.515625
			h3.28125c0.8857422,0,1.6503906-0.1074219,2.2949219-0.3222656s1.1816406-0.5146484,1.6113281-0.8984375
			s0.7451172-0.8369141,0.9472656-1.3574219S693.1894531,156.5172577,693.1894531,155.904953z"/>
		<path fill="#3D3584" d="M716.1738281,172.779953c0,0.234375-0.0126953,0.4394531-0.0390625,0.6152344
			s-0.0712891,0.3222656-0.1367188,0.4394531s-0.1396484,0.2021484-0.2246094,0.2539063s-0.1787109,0.078125-0.2832031,0.078125
			h-12.1289063c-0.2998047,0-0.5830078-0.1005859-0.8496094-0.3027344s-0.4003906-0.5566406-0.4003906-1.0644531v-22.5390625
			c0-0.5078125,0.1337891-0.8623047,0.4003906-1.0644531s0.5498047-0.3027344,0.8496094-0.3027344h11.9921875
			c0.1044922,0,0.1982422,0.0263672,0.2832031,0.078125s0.1533203,0.1367188,0.2050781,0.2539063
			s0.0947266,0.2636719,0.1269531,0.4394531s0.0488281,0.3935547,0.0488281,0.6542969
			c0,0.234375-0.0166016,0.4394531-0.0488281,0.6152344s-0.0751953,0.3193359-0.1269531,0.4296875
			s-0.1201172,0.1923828-0.2050781,0.2441406s-0.1787109,0.078125-0.2832031,0.078125h-9.8828125v7.9296875h8.4765625
			c0.1044922,0,0.1982422,0.0292969,0.2832031,0.0878906s0.15625,0.1396484,0.2148438,0.2441406
			s0.1005859,0.2470703,0.1269531,0.4296875s0.0390625,0.3974609,0.0390625,0.6445313
			c0,0.234375-0.0126953,0.4365234-0.0390625,0.6054688s-0.0683594,0.3056641-0.1269531,0.4101563
			s-0.1298828,0.1787109-0.2148438,0.2246094s-0.1787109,0.0683594-0.2832031,0.0683594h-8.4765625v9.0429688h10.0195313
			c0.1044922,0,0.1982422,0.0263672,0.2832031,0.078125s0.1591797,0.1337891,0.2246094,0.2441406
			s0.1103516,0.2539063,0.1367188,0.4296875S716.1738281,172.5192108,716.1738281,172.779953z"/>
	</g>
	<g>
		<g>
			
				<rect x="47.4999313" y="68.2496719" transform="matrix(0.9999986 0.0016727 -0.0016727 0.9999986 0.1155516 -0.1623644)" fill="#3D3584" width="99.2501373" height="1.5000029"/>
		</g>
		<g>
			
				<rect x="47.3334084" y="76.8595352" transform="matrix(0.9999979 0.0020774 -0.0020774 0.9999979 0.1614132 -0.18117)" fill="#3D3584" width="79.9157028" height="1.5000029"/>
		</g>
		<g>
			
				<rect x="38.8334122" y="86.2037735" transform="matrix(0.9999979 0.0020517 -0.0020517 0.9999979 0.1785709 -0.1624997)" fill="#3D3584" width="80.9156952" height="1.5000029"/>
		</g>
		<g>
			
				<rect x="50.9998932" y="96.083168" transform="matrix(0.9999968 0.002537 -0.002537 0.9999968 0.2459354 -0.212083)" fill="#3D3584" width="65.4377136" height="1.5000051"/>
		</g>
		<g>
			
				<rect x="29.833416" y="107.5416641" transform="matrix(0.9999982 0.0019169 -0.0019169 0.9999982 0.2077238 -0.1399979)" fill="#3D3584" width="86.6041641" height="1.5000029"/>
		</g>
		<g>
			
				<rect x="47.3334236" y="119.2027969" transform="matrix(0.9999984 0.0017833 -0.0017833 0.9999984 0.2140628 -0.1672274)" fill="#3D3584" width="93.093895" height="1.5000029"/>
		</g>
		<g>
			
				<rect x="44.8334274" y="130.5240936" transform="matrix(0.9999986 0.0016976 -0.0016976 0.9999986 0.222982 -0.1589265)" fill="#3D3584" width="97.7960358" height="1.5000029"/>
		</g>
		<g>
			
				<rect x="64.9999084" y="141.0426483" transform="matrix(0.9999975 0.0022245 -0.0022245 0.9999975 0.315677 -0.2272521)" fill="#3D3584" width="74.6290894" height="1.5000029"/>
		</g>
		<g>
			
				<rect x="40.6664314" y="152.0553436" transform="matrix(0.9999985 0.0017544 -0.0017544 0.9999985 0.2682145 -0.1541172)" fill="#3D3584" width="94.6290512" height="1.5000029"/>
		</g>
		<g>
			
				<rect x="83.7186203" y="161.1891174" transform="matrix(0.9999952 0.0031158 -0.0031158 0.9999952 0.505109 -0.3430739)" fill="#3D3584" width="53.2815094" height="1.500008"/>
		</g>
		<g>
			
				<rect x="107.5832825" y="171.5133362" transform="matrix(0.9999866 0.0051806 -0.0051806 0.9999866 0.8940805 -0.6380386)" fill="#3D3584" width="32.0458412" height="1.5000204"/>
		</g>
		<g>
			
				<rect x="80.9999237" y="59.8776016" transform="matrix(0.9999982 0.0019137 -0.0019137 0.9999982 0.1162521 -0.2379081)" fill="#3D3584" width="86.7501602" height="1.5000029"/>
		</g>
		<g>
			
				<rect x="75.1249237" y="51.496254" transform="matrix(0.9999985 0.0017475 -0.0017475 0.9999985 0.0914896 -0.2142118)" fill="#3D3584" width="94.9996567" height="1.5000029"/>
		</g>
		<g>
			
				<rect x="127.2488708" y="44.2916603" transform="matrix(0.9999936 0.0035895 -0.0035895 0.9999936 0.162646 -0.5394779)" fill="#3D3584" width="46.2502975" height="1.5000114"/>
		</g>
	</g>
</g>
</svg>
