<?xml version="1.0" encoding="utf-8"?>
<!-- Generator: Adobe Illustrator 19.0.0, SVG Export Plug-In . SVG Version: 6.00 Build 0)  -->
<svg version="1.2" baseProfile="tiny" id="Layer_1" xmlns="http://www.w3.org/2000/svg" xmlns:xlink="http://www.w3.org/1999/xlink"
	 x="0px" y="0px" viewBox="0 0 512 512" xml:space="preserve">
<g>
	<g id="XMLID_35_">
		<g id="XMLID_68_">
			<path id="XMLID_70_" fill="#569FE2" d="M381.5812073,297.4004517c0-21.1777344-3.4418945-41.3547058-9.6607971-59.7220917
				l-32.7156677,19.5746002v81.3871765l32.399353,19.3851013
				C378.0186462,339.415863,381.5812073,318.9273071,381.5812073,297.4004517z"/>
		</g>
		<g id="XMLID_64_">
			<path id="XMLID_66_" fill="#569FE2" d="M262.3320618,205.6851349l71.4280701,41.5051575l34.0410767-20.3676605
				c-19.9070129-47.9182739-59.4227295-81.1770782-105.3729553-83.3723602L262.3320618,205.6851349z"/>
		</g>
		<g id="XMLID_60_">
			<polygon id="XMLID_62_" fill="#569FE2" points="328.3306274,256.5811462 256.6824341,214.9477539 185.0340576,256.8225098 
				185.0340576,336.2182007 256.6824341,380.2712708 328.3306274,336.21698 			"/>
		</g>
		<g id="XMLID_53_">
			<path id="XMLID_58_" fill="#569FE2" d="M179.2198639,247.6750488l71.6816711-41.8943481l0.0959625-62.2622223
				c-45.663559,2.973053-84.7563782,36.6657715-104.2166138,84.7473907L179.2198639,247.6750488z"/>
		</g>
		<g id="XMLID_48_">
			<path id="XMLID_50_" fill="#569FE2" d="M250.9952545,389.3200989l-69.9190674-42.989624l-34.1911621,20.4575195
				c19.4810638,47.9119263,58.4738312,81.4755859,104.0148773,84.4849854L250.9952545,389.3200989z"/>
		</g>
		<g id="XMLID_43_">
			<path id="XMLID_46_" fill="#569FE2" d="M331.0576477,347.0857849l-68.6316528,42.1996155l-0.0959778,62.0682373
				c45.7123718-2.13974,85.072876-35.01651,105.1101685-82.4994202L331.0576477,347.0857849z"/>
		</g>
		<g id="XMLID_39_">
			<path id="XMLID_41_" fill="#569FE2" d="M174.1599426,337.1482849v-79.1804504l-31.3830872-18.77742
				c-5.9028168,17.9641266-9.1811371,37.6068878-9.1811371,58.2100372c0,20.7037659,3.3075256,40.4396667,9.265274,58.474823
				L174.1599426,337.1482849z"/>
		</g>
	</g>
	<g id="XMLID_31_">
		<path id="XMLID_33_" fill="#569FE2" d="M108.0862427,368.4924011c0,0,6.5366592,19.8948059,27.6312561,51.2080383
			c9.1692963,13.6111145-3.7945404,39.9569702-17.1765518,39.9569702
			C100.3497696,459.6574097,74.4221115,414.0749207,108.0862427,368.4924011z"/>
	</g>
	<g id="XMLID_27_">
		<path id="XMLID_29_" fill="#569FE2" d="M403.4842834,368.4923706c0,0-6.5366821,19.8948364-27.6312561,51.2080688
			c-9.1693115,13.611084,3.7945251,39.9569397,17.1765442,39.9569397
			C411.2207336,459.6573792,437.148407,414.0748901,403.4842834,368.4923706z"/>
	</g>
	<g id="XMLID_25_">
		<path id="XMLID_26_" fill="#569FE2" d="M257.7975464,109.8431091c17.3439941,0,33.9747009,3.6513824,49.4133606,10.3119659
			c0.4390259-3.7312241,0.7218323-7.5330963,0.7083435-11.4350281
			c-0.135376-38.9739761-23.6956177-70.4871368-52.6230774-70.3864746
			c-28.9274597,0.1004639-52.2679749,31.7765732-52.1325989,70.7505493
			c0.0155182,4.4563141,0.3730621,8.7986908,0.973999,13.0236588
			C220.7583008,114.2224426,238.8473816,109.8431091,257.7975464,109.8431091z"/>
	</g>
	<g id="XMLID_23_">
		<path id="XMLID_24_" fill="#569FE2" d="M156.0384674,156.9589539c2.4387817-1.5200653-2.3697357-8.9213409-7.2485962-8.9213409
			c-1.1151581,0-14.4971771-1.2545624-46.5582581,3.0667114c-29.2496338,3.942337-101.5862274,52.4545288-71.5101471,113.8865204
			c6.5516129,13.382019,36.8005447,3.9031067,77.3647766-31.7822723
			C108.0862427,233.2085724,115.3348389,182.3290253,156.0384674,156.9589539z"/>
	</g>
	<g id="XMLID_21_">
		<path id="XMLID_22_" fill="#569FE2" d="M355.9615173,156.9589539c-2.4387817-1.5200653,2.369751-8.9213409,7.2485962-8.9213409
			c1.1151733,0,14.4971924-1.2545624,46.5582886,3.0667114c29.2496338,3.942337,101.5862122,52.4545288,71.5101318,113.8865204
			c-6.5516052,13.382019-36.8005371,3.9031067-77.3647766-31.7822723
			C403.9137573,233.2085724,396.6651611,182.3290253,355.9615173,156.9589539z"/>
	</g>
	<g id="XMLID_16_">
		<path id="XMLID_18_" fill="#569FE2" d="M257.7975464,121.5523758c-80.8356628,0-146.365799,78.8235397-146.365799,176.0571594
			s65.5301361,176.0571289,146.365799,176.0571289s146.3658142-78.8235168,146.3658142-176.0571289
			S338.6332092,121.5523758,257.7975464,121.5523758z M257.5884399,461.9573975
			c-74.2532654,0-134.4474182-73.5810852-134.4474182-164.3478699s60.1941605-164.3478851,134.4474182-164.3478851
			s134.4474487,73.5810699,134.4474487,164.3478851S331.8417358,461.9573975,257.5884399,461.9573975z"/>
	</g>
</g>
</svg>
